<svg width="24" height="24" viewBox="0 0 24 24" fill="none" xmlns="http://www.w3.org/2000/svg">
<g clip-path="url(#clip0_0_332)">
<path d="M0.691151 11.8564C0.690593 13.8728 1.21748 15.8418 2.21934 17.5772L0.595337 23.5067L6.66343 21.9156C8.34178 22.8293 10.2223 23.3081 12.1332 23.3082H12.1382C18.4466 23.3082 23.5818 18.1749 23.5845 11.8654C23.5857 8.80798 22.3961 5.93301 20.2348 3.77003C18.0738 1.60724 15.1999 0.415519 12.1378 0.414124C5.82864 0.414124 0.693849 5.54715 0.691244 11.8564" fill="url(#paint0_linear_0_332)"/>
<path d="M0.282518 11.8527C0.281867 13.9417 0.827635 15.981 1.86522 17.7786L0.182983 23.9207L6.46866 22.2726C8.20056 23.2168 10.1505 23.7147 12.1347 23.7154H12.1398C18.6745 23.7154 23.9941 18.3975 23.9969 11.8621C23.9981 8.69488 22.7657 5.71656 20.5272 3.47609C18.2884 1.23591 15.3116 0.00130233 12.1398 0C5.60401 0 0.285123 5.31721 0.282518 11.8527ZM4.02577 17.469L3.79108 17.0965C2.80447 15.5277 2.28373 13.7149 2.28447 11.8534C2.28661 6.4213 6.70745 2.00186 12.1435 2.00186C14.7761 2.00298 17.2501 3.02921 19.111 4.89116C20.9717 6.7533 21.9956 9.22865 21.995 11.8614C21.9926 17.2935 17.5716 21.7135 12.1398 21.7135H12.1359C10.3673 21.7126 8.63266 21.2376 7.11991 20.34L6.75991 20.1265L3.02987 21.1045L4.02577 17.4689V17.469Z" fill="url(#paint1_linear_0_332)"/>
<path d="M9.17626 6.89746C8.95431 6.40416 8.72073 6.39421 8.50966 6.38556C8.33682 6.37811 8.13924 6.37867 7.94184 6.37867C7.74426 6.37867 7.42324 6.453 7.15189 6.74928C6.88026 7.04583 6.11487 7.76249 6.11487 9.22007C6.11487 10.6777 7.17654 12.0864 7.32454 12.2843C7.47273 12.4817 9.37412 15.5686 12.3855 16.7562C14.8882 17.743 15.3975 17.5468 15.9406 17.4973C16.4839 17.448 17.6936 16.7808 17.9404 16.089C18.1873 15.3973 18.1873 14.8043 18.1133 14.6804C18.0392 14.557 17.8417 14.4829 17.5454 14.3348C17.249 14.1866 15.7924 13.4698 15.5209 13.371C15.2493 13.2722 15.0518 13.2229 14.8542 13.5195C14.6566 13.8157 14.0893 14.4829 13.9164 14.6804C13.7436 14.8785 13.5707 14.9031 13.2745 14.755C12.978 14.6063 12.0239 14.2938 10.8919 13.2846C10.0111 12.4993 9.41654 11.5296 9.24371 11.2329C9.07087 10.9367 9.22519 10.7762 9.37375 10.6285C9.50687 10.4958 9.67012 10.2826 9.8184 10.1096C9.96612 9.93663 10.0154 9.81318 10.1142 9.6156C10.2131 9.41783 10.1636 9.24481 10.0897 9.09663C10.0154 8.94844 9.43971 7.48323 9.17626 6.89746Z" fill="white"/>
</g>
<defs>
<linearGradient id="paint0_linear_0_332" x1="1150.05" y1="2309.67" x2="1150.05" y2="0.414124" gradientUnits="userSpaceOnUse">
<stop stop-color="#1FAF38"/>
<stop offset="1" stop-color="#60D669"/>
</linearGradient>
<linearGradient id="paint1_linear_0_332" x1="1190.88" y1="2392.07" x2="1190.88" y2="0" gradientUnits="userSpaceOnUse">
<stop stop-color="#F9F9F9"/>
<stop offset="1" stop-color="white"/>
</linearGradient>
<clipPath id="clip0_0_332">
<rect width="23.82" height="24" fill="white" transform="translate(0.179932)"/>
</clipPath>
</defs>
</svg>
